<svg width="128" height="128" viewBox="0 0 128 128" fill="none" xmlns="http://www.w3.org/2000/svg">
<path d="M54.3734 63.2757H54.3733C54.3689 63.7643 54.1736 64.2318 53.8292 64.5783C53.4848 64.9249 53.0185 65.1231 52.5299 65.1305L52.5186 65.1307V65.1306C47.8421 65.1491 42.0346 65.7161 37.3939 67.9315L54.3734 63.2757ZM54.3734 63.2757L54.3733 63.2658M54.3734 63.2757L54.3733 63.2658M54.3733 63.2658C54.3707 60.1084 54.6289 56.452 55.4906 52.9766C56.3514 49.5078 57.8317 46.1425 60.3258 43.6484C63.1128 40.8614 66.859 39.4594 70.6037 38.8149C74.3563 38.1714 78.1902 38.2721 81.2494 38.5712L81.2552 38.5718C83.3613 38.7653 85.3333 39.6899 86.8291 41.1853C88.3249 42.6806 89.2501 44.6523 89.4442 46.7584L89.4448 46.7639C89.7439 49.8264 89.8471 53.6598 89.2012 57.4116L89.2012 57.4117C88.5567 61.1567 87.1547 64.9029 84.3679 67.6872L84.3672 67.6879C81.8707 70.1869 78.5058 71.6672 75.0315 72.5307L54.3733 63.2658ZM38.3756 73.7351L38.3757 73.7351C40.5103 74.256 43.0062 74.9347 45.1909 75.711C46.282 76.0974 47.2804 76.5022 48.1086 76.9162C48.949 77.3364 49.5545 77.7376 49.9098 78.0929L49.9137 78.0967C50.2646 78.4515 50.6645 79.0503 51.0864 79.8941C51.5003 80.7219 51.9051 81.7176 52.2917 82.8068L52.292 82.8075C53.0655 84.9919 53.7414 87.4848 54.2622 89.6189L54.2622 89.619C54.6014 91.01 55.6294 91.9915 56.8281 92.2586C58.0813 92.5354 59.404 91.9935 60.0685 90.6034C62.2836 85.9686 62.8508 80.1753 62.8774 75.5031C62.8774 75.5024 62.8774 75.5017 62.8774 75.501L38.3756 73.7351ZM38.3756 73.7351C36.9847 73.3959 36.0034 72.3681 35.7362 71.1723C35.4594 69.9203 36.0024 68.5969 37.3935 67.9317L38.3756 73.7351ZM77.2594 45.4072C76.5718 44.7196 75.6391 44.3333 74.6667 44.3333C73.6942 44.3333 72.7616 44.7196 72.074 45.4072C71.3863 46.0949 71 47.0275 71 48C71 48.9724 71.3863 49.9051 72.074 50.5927C72.7616 51.2803 73.6942 51.6666 74.6667 51.6666C75.6391 51.6666 76.5718 51.2803 77.2594 50.5927C77.947 49.9051 78.3333 48.9724 78.3333 48C78.3333 47.0275 77.947 46.0949 77.2594 45.4072Z" fill="white" stroke="#9FC0D1" stroke-width="2"/>

</svg>
