<svg width="128" height="128" viewBox="0 0 128 128" fill="none" xmlns="http://www.w3.org/2000/svg">
<mask id="path-1-inside-1_0_1" fill="white">
<path d="M59.6187 42.9413C56.9493 45.6106 55.4053 49.168 54.52 52.736C53.632 56.3173 53.3707 60.0613 53.3733 63.2666C53.3713 63.4942 53.2803 63.712 53.1199 63.8734C52.9594 64.0349 52.7422 64.1272 52.5147 64.1306C47.792 64.1493 41.8053 64.7173 36.9627 67.0293C35.144 67.8986 34.384 69.6906 34.76 71.3893C35.1147 72.9786 36.4 74.2826 38.1387 74.7066C40.2587 75.224 42.7173 75.8933 44.856 76.6533C45.9253 77.032 46.8827 77.4213 47.6613 77.8106C48.4667 78.2133 48.96 78.5573 49.2027 78.8C49.4453 79.0453 49.7893 79.536 50.192 80.3413C50.5813 81.12 50.9707 82.0746 51.3493 83.1413C52.1067 85.28 52.7733 87.736 53.2907 89.856C53.7147 91.5946 55.0187 92.88 56.6107 93.2346C58.3093 93.6106 60.1013 92.8533 60.9707 91.0346C63.2827 86.1973 63.8507 80.224 63.8773 75.5066C63.8773 75.04 64.2693 74.6506 64.7387 74.6506C67.944 74.6506 71.688 74.3893 75.272 73.5013C78.8453 72.6133 82.4027 71.0693 85.0747 68.3946C88.0613 65.4106 89.5227 61.44 90.1867 57.5813C90.8533 53.7093 90.744 49.7786 90.44 46.6666C90.2244 44.328 89.197 42.1385 87.5361 40.4781C85.8751 38.8176 83.6854 37.7909 81.3467 37.576C78.2373 37.272 74.3067 37.1653 70.4347 37.8293C66.576 38.4933 62.6053 39.9546 59.6187 42.9413ZM74.6667 45.3333C75.3739 45.3333 76.0522 45.6143 76.5523 46.1144C77.0524 46.6145 77.3333 47.2927 77.3333 48C77.3333 48.7072 77.0524 49.3855 76.5523 49.8856C76.0522 50.3857 75.3739 50.6666 74.6667 50.6666C73.9594 50.6666 73.2811 50.3857 72.781 49.8856C72.281 49.3855 72 48.7072 72 48C72 47.2927 72.281 46.6145 72.781 46.1144C73.2811 45.6143 73.9594 45.3333 74.6667 45.3333Z"/>
</mask>
<path d="M59.6187 42.9413C56.9493 45.6106 55.4053 49.168 54.52 52.736C53.632 56.3173 53.3707 60.0613 53.3733 63.2666C53.3713 63.4942 53.2803 63.712 53.1199 63.8734C52.9594 64.0349 52.7422 64.1272 52.5147 64.1306C47.792 64.1493 41.8053 64.7173 36.9627 67.0293C35.144 67.8986 34.384 69.6906 34.76 71.3893C35.1147 72.9786 36.4 74.2826 38.1387 74.7066C40.2587 75.224 42.7173 75.8933 44.856 76.6533C45.9253 77.032 46.8827 77.4213 47.6613 77.8106C48.4667 78.2133 48.96 78.5573 49.2027 78.8C49.4453 79.0453 49.7893 79.536 50.192 80.3413C50.5813 81.12 50.9707 82.0746 51.3493 83.1413C52.1067 85.28 52.7733 87.736 53.2907 89.856C53.7147 91.5946 55.0187 92.88 56.6107 93.2346C58.3093 93.6106 60.1013 92.8533 60.9707 91.0346C63.2827 86.1973 63.8507 80.224 63.8773 75.5066C63.8773 75.04 64.2693 74.6506 64.7387 74.6506C67.944 74.6506 71.688 74.3893 75.272 73.5013C78.8453 72.6133 82.4027 71.0693 85.0747 68.3946C88.0613 65.4106 89.5227 61.44 90.1867 57.5813C90.8533 53.7093 90.744 49.7786 90.44 46.6666C90.2244 44.328 89.197 42.1385 87.5361 40.4781C85.8751 38.8176 83.6854 37.7909 81.3467 37.576C78.2373 37.272 74.3067 37.1653 70.4347 37.8293C66.576 38.4933 62.6053 39.9546 59.6187 42.9413ZM74.6667 45.3333C75.3739 45.3333 76.0522 45.6143 76.5523 46.1144C77.0524 46.6145 77.3333 47.2927 77.3333 48C77.3333 48.7072 77.0524 49.3855 76.5523 49.8856C76.0522 50.3857 75.3739 50.6666 74.6667 50.6666C73.9594 50.6666 73.2811 50.3857 72.781 49.8856C72.281 49.3855 72 48.7072 72 48C72 47.2927 72.281 46.6145 72.781 46.1144C73.2811 45.6143 73.9594 45.3333 74.6667 45.3333Z" fill="white" stroke="#9FC0D1" stroke-width="4" mask="url(#path-1-inside-1_0_1)"/>
</svg>
